# xmcd
#
# Track frame offsets: 
#        150
#        13788
#        27597
#        43022
#        56090
#        70765
#        82583
#        100101
#        115863
#        129423
#        141941
#        159188
#        175561
#
# Disc length: 2603 seconds
#
# Revision: 0
# Processed by: cddbd v1.5.2PL0 Copyright (c) Steve Scherf et al.
# Submitted via: ExactAudioCopy v1.0b4
#
DISCID=9e0a290d
DTITLE=Julie Black - Follow The Muse
DYEAR=2014
DGENRE=Blues, Jazz, Soul
TTITLE0=Shout It
TTITLE1=Evolution
TTITLE2=Straight Shootin' Mama
TTITLE3=Greatest Love
TTITLE4=She Used To Be Mine
TTITLE5=It's Ok
TTITLE6=Follow The Muse
TTITLE7=Ever Since
TTITLE8=Truth Is
TTITLE9=Love Grande
TTITLE10=Nothing Changed
TTITLE11=Majesty Of Hope
TTITLE12=The Call
EXTD=
EXTT0=
EXTT1=
EXTT2=
EXTT3=
EXTT4=
EXTT5=
EXTT6=
EXTT7=
EXTT8=
EXTT9=
EXTT10=
EXTT11=
EXTT12=
PLAYORDER=
